# Blender 4.3.2
# www.blender.org
mtllib texture_die.mtl
o Cube
v 1.000000 1.000000 -1.000000
v 1.000000 -1.000000 -1.000000
v 1.000000 1.000000 1.000000
v 1.000000 -1.000000 1.000000
v -1.000000 1.000000 -1.000000
v -1.000000 -1.000000 -1.000000
v -1.000000 1.000000 1.000000
v -1.000000 -1.000000 1.000000
vn -0.0000 1.0000 -0.0000
vn -0.0000 -0.0000 1.0000
vn -1.0000 -0.0000 -0.0000
vn -0.0000 -1.0000 -0.0000
vn 1.0000 -0.0000 -0.0000
vn -0.0000 -0.0000 -1.0000
vt 1.000278 -0.002231
vt -0.004184 0.998325
vt 0.007534 -0.000278
vt 0.993437 0.014465
vt 0.002507 1.005395
vt 0.002507 0.014465
vt 1.011920 -0.003006
vt 0.026540 0.982373
vt 0.026540 -0.003006
vt 0.997146 0.001572
vt 0.009896 0.988822
vt 0.009896 0.001572
vt 0.999387 0.005140
vt 0.002438 1.003914
vt 0.003351 0.010616
vt 0.989438 0.011864
vt -0.001899 0.998630
vt -0.001899 0.011864
vt 0.998325 1.004184
vt 0.993437 1.005395
vt 1.011920 0.982373
vt 0.997146 0.988822
vt 0.998474 0.998438
vt 0.989438 0.998630
s 0
usemtl Material.001
f 3/4/2 8/5/2 4/6/2
f 3/4/2 7/20/2 8/5/2
usemtl Material.002
f 5/16/6 2/17/6 6/18/6
f 5/16/6 1/24/6 2/17/6
usemtl Material.004
f 1/13/5 4/14/5 2/15/5
f 1/13/5 3/23/5 4/14/5
usemtl Material.003
f 5/1/1 3/2/1 1/3/1
f 5/1/1 7/19/1 3/2/1
usemtl Material.005
f 7/7/3 6/8/3 8/9/3
f 7/7/3 5/21/3 6/8/3
usemtl Material
f 2/10/4 8/11/4 6/12/4
f 2/10/4 4/22/4 8/11/4
